<svg width="12" height="10" viewBox="0 0 12 10" fill="none" xmlns="http://www.w3.org/2000/svg">
<path d="M11.4205 0.18989C11.3116 -0.0542184 11.0004 -0.0639827 10.8702 0.166455C10.2673 1.21905 9.18805 1.87521 7.95516 1.87521H6.39946C4.33815 1.87521 2.66577 3.55467 2.66577 5.62471C2.66577 5.76141 2.68132 5.89225 2.69494 6.02504C3.93561 5.13259 5.72661 4.37488 8.2663 4.37488C8.43743 4.37488 8.57744 4.51548 8.57744 4.68733C8.57744 4.85919 8.43743 4.99979 8.2663 4.99979C3.3775 4.99979 1.30453 8.00915 0.845595 9.13986C0.717249 9.45818 0.86893 9.82141 1.1859 9.95225C1.50482 10.085 1.86653 9.93077 1.99876 9.61441C2.02793 9.5441 2.40519 8.67899 3.39695 7.84511C4.02701 8.70242 5.2249 9.52067 6.7981 9.35272C9.85117 9.1301 12 6.38047 12 3.01373C12 2.03339 11.79 1.0179 11.4205 0.18989Z" fill="#D3D3D3"/>
</svg>
